<svg width="234" height="234" xmlns="http://www.w3.org/2000/svg" xmlns:xlink="http://www.w3.org/1999/xlink" overflow="hidden"><defs><clipPath id="clip0"><rect x="0" y="0" width="234" height="234"/></clipPath></defs><g clip-path="url(#clip0)"><path d="M75.5625 75.5625 48.75 75.5625 48.75 58.5 75.5625 58.5 75.5625 75.5625ZM112.125 58.5 112.125 75.5625 85.3125 75.5625 85.3125 58.5 112.125 58.5ZM148.688 58.5 148.688 75.5625 121.875 75.5625 121.875 58.5 148.688 58.5ZM185.25 58.5 185.25 75.5625 158.438 75.5625 158.438 58.5 185.25 58.5ZM185.25 102.375 158.438 102.375 158.438 85.3125 185.25 85.3125 185.25 102.375ZM185.25 123.094 158.438 125.531 158.438 112.125 185.25 112.125 185.25 123.094ZM75.5625 112.125 75.5625 132.844 48.75 135.281 48.75 112.125 75.5625 112.125ZM75.5625 102.375 48.75 102.375 48.75 85.3125 75.5625 85.3125 75.5625 102.375ZM112.125 102.375 85.3125 102.375 85.3125 85.3125 112.125 85.3125 112.125 102.375ZM121.875 102.375 121.875 85.3125 148.688 85.3125 148.688 102.375 121.875 102.375ZM112.125 129.675 85.3125 132.113 85.3125 112.125 112.125 112.125 112.125 129.675ZM121.875 112.125 148.688 112.125 148.688 126.262 121.875 128.7 121.875 112.125ZM199.875 136.5 199.875 43.875 48.75 43.875 48.75 41.4375C48.75 29.25 39 19.5 26.8125 19.5 22.6688 19.5 19.5 22.6688 19.5 26.8125 19.5 30.9562 22.6688 34.125 26.8125 34.125 30.9562 34.125 34.125 37.2938 34.125 41.4375L34.125 163.312C34.125 175.5 43.875 185.25 56.0625 185.25L63.375 185.25 170.625 185.25 192.562 185.25C196.706 185.25 199.875 182.081 199.875 177.938 199.875 173.794 196.706 170.625 192.562 170.625L56.0625 170.625C51.9187 170.625 48.75 167.456 48.75 163.312L48.75 149.906 199.875 136.5Z"/><path d="M78 199.875C78 207.952 71.4522 214.5 63.375 214.5 55.2978 214.5 48.75 207.952 48.75 199.875 48.75 191.798 55.2978 185.25 63.375 185.25 71.4522 185.25 78 191.798 78 199.875Z"/><path d="M185.25 199.875C185.25 207.952 178.702 214.5 170.625 214.5 162.548 214.5 156 207.952 156 199.875 156 191.798 162.548 185.25 170.625 185.25 178.702 185.25 185.25 191.798 185.25 199.875Z"/></g></svg>